<svg width="50" height="50" viewBox="0 0 50 50" fill="none" xmlns="http://www.w3.org/2000/svg">
<rect width="50" height="50" fill="#009223"/>
<path d="M19.49 39.252C16.664 39.252 14.738 36.84 14.738 32.232C14.738 27.624 16.664 25.356 19.49 25.356C22.316 25.356 24.224 27.642 24.224 32.232C24.224 36.84 22.316 39.252 19.49 39.252ZM19.49 36.768C20.444 36.768 21.2 35.904 21.2 32.232C21.2 28.578 20.444 27.804 19.49 27.804C18.536 27.804 17.762 28.578 17.762 32.232C17.762 35.904 18.536 36.768 19.49 36.768ZM25.6527 39V36.408H28.4968V28.794H26.0307V26.814C27.4707 26.544 28.4067 26.184 29.3428 25.59H31.7008V36.408H34.1128V39H25.6527Z" fill="white"/>
<rect x="9" y="10" width="32" height="5" fill="#FFCE32"/>
</svg>
