<svg width="50" height="50" viewBox="0 0 50 50" fill="none" xmlns="http://www.w3.org/2000/svg">
<rect width="50" height="50" fill="#009223"/>
<path d="M19.49 39.252C16.664 39.252 14.738 36.84 14.738 32.232C14.738 27.624 16.664 25.356 19.49 25.356C22.316 25.356 24.224 27.642 24.224 32.232C24.224 36.84 22.316 39.252 19.49 39.252ZM19.49 36.768C20.444 36.768 21.2 35.904 21.2 32.232C21.2 28.578 20.444 27.804 19.49 27.804C18.536 27.804 17.762 28.578 17.762 32.232C17.762 35.904 18.536 36.768 19.49 36.768ZM29.2707 39.252C27.1467 39.252 25.6527 38.514 24.6807 37.38L26.1567 35.364C26.9667 36.12 27.9027 36.66 28.9467 36.66C30.1887 36.66 30.9988 36.138 30.9988 35.13C30.9988 33.978 30.3868 33.294 27.5787 33.294V31.026C29.8647 31.026 30.5848 30.342 30.5848 29.28C30.5848 28.362 30.0448 27.858 29.0548 27.858C28.1547 27.858 27.4707 28.254 26.6607 28.974L25.0407 27.012C26.2827 25.968 27.6147 25.356 29.1987 25.356C31.9708 25.356 33.7888 26.652 33.7888 29.046C33.7888 30.378 33.0687 31.422 31.6467 31.998V32.088C33.1228 32.538 34.2208 33.618 34.2208 35.346C34.2208 37.848 31.9348 39.252 29.2707 39.252Z" fill="white"/>
<rect x="9" y="10" width="32" height="5" fill="#FFCE32"/>
</svg>
