<svg width="72" height="72" viewBox="0 0 72 72" fill="none" xmlns="http://www.w3.org/2000/svg">
<path d="M54 24H60C60.7956 24 61.5587 24.3161 62.1213 24.8787C62.6839 25.4413 63 26.2044 63 27V63C63 63.7956 62.6839 64.5587 62.1213 65.1213C61.5587 65.6839 60.7956 66 60 66H12C11.2044 66 10.4413 65.6839 9.87868 65.1213C9.31607 64.5587 9 63.7956 9 63V27C9 26.2044 9.31607 25.4413 9.87868 24.8787C10.4413 24.3161 11.2044 24 12 24H18V21C18 16.2261 19.8964 11.6477 23.2721 8.27208C26.6477 4.89642 31.2261 3 36 3C40.7739 3 45.3523 4.89642 48.7279 8.27208C52.1036 11.6477 54 16.2261 54 21V24ZM15 30V60H57V30H15ZM33 42H39V48H33V42ZM21 42H27V48H21V42ZM45 42H51V48H45V42ZM48 24V21C48 17.8174 46.7357 14.7652 44.4853 12.5147C42.2348 10.2643 39.1826 9 36 9C32.8174 9 29.7652 10.2643 27.5147 12.5147C25.2643 14.7652 24 17.8174 24 21V24H48Z" fill="#008736"/>
</svg>
