<svg width="50" height="50" viewBox="0 0 50 50" fill="none" xmlns="http://www.w3.org/2000/svg">
<rect width="50" height="50" fill="#009223"/>
<path d="M19.49 39.252C16.664 39.252 14.738 36.84 14.738 32.232C14.738 27.624 16.664 25.356 19.49 25.356C22.316 25.356 24.224 27.642 24.224 32.232C24.224 36.84 22.316 39.252 19.49 39.252ZM19.49 36.768C20.444 36.768 21.2 35.904 21.2 32.232C21.2 28.578 20.444 27.804 19.49 27.804C18.536 27.804 17.762 28.578 17.762 32.232C17.762 35.904 18.536 36.768 19.49 36.768ZM25.0047 39V37.164C28.3528 34.122 30.6028 31.692 30.6028 29.748C30.6028 28.524 29.9367 27.858 28.8567 27.858C27.9387 27.858 27.2367 28.47 26.5887 29.154L24.8427 27.426C26.1567 26.022 27.3807 25.356 29.2887 25.356C31.8808 25.356 33.6808 27.012 33.6808 29.568C33.6808 31.872 31.7008 34.41 29.6487 36.48C30.3147 36.39 31.2327 36.3 31.8448 36.3H34.2928V39H25.0047Z" fill="white"/>
<rect x="9" y="10" width="32" height="5" fill="#FFCE32"/>
</svg>
