<svg width="48" height="48" viewBox="0 0 48 48" fill="none" xmlns="http://www.w3.org/2000/svg">
<path d="M24 44C35.046 44 44 35.046 44 24C44 12.954 35.046 4 24 4C12.954 4 4 12.954 4 24C4 35.046 12.954 44 24 44Z" stroke="black" stroke-width="4" stroke-linecap="round" stroke-linejoin="round"/>
<path d="M24 23C25.3261 23 26.5979 22.4732 27.5355 21.5355C28.4732 20.5979 29 19.3261 29 18C29 16.6739 28.4732 15.4021 27.5355 14.4645C26.5979 13.5268 25.3261 13 24 13C22.6739 13 21.4021 13.5268 20.4645 14.4645C19.5268 15.4021 19 16.6739 19 18C19 19.3261 19.5268 20.5979 20.4645 21.5355C21.4021 22.4732 22.6739 23 24 23Z" stroke="black" stroke-width="4" stroke-linejoin="round"/>
<path d="M10.022 38.332C10.366 33.121 14.702 29 20 29H28C33.291 29 37.623 33.11 37.977 38.311" stroke="black" stroke-width="4" stroke-linecap="round" stroke-linejoin="round"/>
</svg>
