<svg width="20" height="21" viewBox="0 0 20 21" fill="none" xmlns="http://www.w3.org/2000/svg">
<g clip-path="url(#clip0_246_86)">
<path d="M5.55556 0.395752C2.48778 0.395752 0 2.88353 0 5.95131V14.8402C0 17.908 2.48778 20.3958 5.55556 20.3958H14.4444C17.5122 20.3958 20 17.908 20 14.8402V5.95131C20 2.88353 17.5122 0.395752 14.4444 0.395752H5.55556ZM16.6667 2.61797C17.28 2.61797 17.7778 3.11575 17.7778 3.72909C17.7778 4.34242 17.28 4.8402 16.6667 4.8402C16.0533 4.8402 15.5556 4.34242 15.5556 3.72909C15.5556 3.11575 16.0533 2.61797 16.6667 2.61797ZM10 4.8402C13.0678 4.8402 15.5556 7.32797 15.5556 10.3958C15.5556 13.4635 13.0678 15.9513 10 15.9513C6.93222 15.9513 4.44444 13.4635 4.44444 10.3958C4.44444 7.32797 6.93222 4.8402 10 4.8402ZM10 7.06242C9.11595 7.06242 8.2681 7.41361 7.64298 8.03873C7.01786 8.66385 6.66667 9.5117 6.66667 10.3958C6.66667 11.2798 7.01786 12.1277 7.64298 12.7528C8.2681 13.3779 9.11595 13.7291 10 13.7291C10.8841 13.7291 11.7319 13.3779 12.357 12.7528C12.9821 12.1277 13.3333 11.2798 13.3333 10.3958C13.3333 9.5117 12.9821 8.66385 12.357 8.03873C11.7319 7.41361 10.8841 7.06242 10 7.06242Z" fill="white"/>
</g>
<defs>
<clipPath id="clip0_246_86">
<rect width="20" height="20" fill="white" transform="translate(0 0.395752)"/>
</clipPath>
</defs>
</svg>
