<svg width="24" height="18" viewBox="0 0 24 18" fill="none" xmlns="http://www.w3.org/2000/svg">
<path d="M12.5317 17.8735L7.60784 17.7813C6.0136 17.7491 4.41539 17.8133 2.85241 17.4804C0.474754 16.983 0.306312 14.5442 0.130056 12.4986C-0.112807 9.62263 -0.0187875 6.69448 0.439526 3.84255C0.69826 2.24231 1.71648 1.28744 3.29112 1.18353C8.6067 0.806436 13.9576 0.851126 19.2614 1.02706C19.8216 1.04318 20.3856 1.13133 20.9379 1.23167C23.6643 1.72105 23.7308 4.48471 23.9076 6.8112C24.0838 9.16169 24.0094 11.5242 23.6725 13.8587C23.4022 15.7916 22.8851 17.4125 20.7028 17.569C17.9686 17.7736 15.2971 17.9384 12.5552 17.8859C12.5553 17.8735 12.5395 17.8735 12.5317 17.8735ZM9.63695 12.9799C11.6974 11.7685 13.7186 10.5773 15.7673 9.37394C13.703 8.1625 11.6857 6.97124 9.63695 5.76793V12.9799Z" fill="white"/>
</svg>
