<svg width="300" height="60" viewBox="0 0 300 60" fill="none" xmlns="http://www.w3.org/2000/svg">
<path d="M56.627 49.5991C62.3328 48.4534 65.8379 44.6891 65.8379 38.5516C65.8379 31.1866 61.1102 29.059 52.5513 24.9673C48.4757 23.0033 47.4975 22.5123 47.4975 21.2848C47.4975 20.4665 48.1496 19.6482 49.3723 19.6482L63.8001 19.8937V10.3192C63.8001 10.3192 54.9967 10.1555 51.8992 10.1555C50.3505 10.1555 48.0681 10.1555 46.7639 10.3192C40.4874 11.1375 36.2488 15.311 36.2488 21.203C36.2488 28.8953 41.7101 31.2684 48.6387 34.5418C52.9589 36.5876 54.5076 37.1604 54.5076 38.7153C54.5076 39.6154 53.8555 40.4337 52.4698 40.4337L37.1454 40.3519V35.1146L25 45.0164L37.0639 55V49.7627L50.758 49.8446C52.4698 49.9264 55.0782 49.8446 56.627 49.5991ZM121.104 41.1702H115.153V33.6416H121.104C123.304 33.6416 124.364 35.0328 124.364 37.4059C124.364 39.6154 123.304 41.1702 121.104 41.1702ZM123.467 22.4305C123.467 24.4763 122.571 26.0311 120.533 26.0311H115.153V18.9117H120.533C122.489 18.9117 123.467 20.3028 123.467 22.4305ZM123.06 50.0082C130.885 50.0082 136.102 45.7529 136.102 37.8969C136.102 33.7234 134.064 30.8593 130.641 28.9771C133.575 27.0131 135.042 24.3126 135.042 21.1211C135.042 14.9837 130.722 10.2374 122.408 10.2374H103.66V50.0082H123.06ZM83.9337 50.8265C73.0925 50.8265 67.9572 44.9346 67.9572 38.6334V10.2374H79.532V37.7333C79.532 39.5336 80.9993 40.9247 83.9337 40.9247C86.8682 40.9247 88.3354 39.4518 88.3354 37.7333V10.2374H99.9917V38.6334C99.9917 44.9346 94.2043 50.8265 83.9337 50.8265Z" fill="#FFCE32"/>
<path d="M254.133 47.5532C254.296 47.5532 254.377 47.635 254.377 47.7169C254.377 47.7987 254.296 47.8805 254.133 47.8805H253.807V47.5532H254.133ZM253.236 47.0622V49.0262H253.807V48.3715L254.296 49.0262H254.948L254.377 48.3715C254.703 48.2897 254.948 48.0442 254.948 47.7987C254.948 47.3895 254.703 47.144 254.133 47.144H253.236V47.0622ZM254.051 49.6809C253.155 49.6809 252.421 48.9444 252.421 48.126C252.421 47.2259 253.155 46.4894 254.051 46.4894C254.866 46.4894 255.6 47.2259 255.6 48.126C255.681 48.9444 254.948 49.6809 254.051 49.6809ZM254.051 45.9165C252.829 45.9165 251.85 46.8985 251.85 48.0442C251.85 49.1899 252.829 50.1719 254.051 50.1719C255.274 50.1719 256.252 49.1899 256.252 48.0442C256.252 46.8985 255.274 45.9165 254.051 45.9165ZM210.442 29.3863H201.72V22.2668C201.72 20.3846 203.024 18.9935 206.122 18.9935C209.219 18.9935 210.523 20.3846 210.523 22.2668L210.442 29.3863ZM201.72 50.0082V38.4697H210.442V50.0082H222.017V21.6121C222.017 14.4108 216.066 9.09165 206.122 9.09165C196.014 9.09165 190.227 14.4926 190.227 21.6121V50.0082H201.72ZM172.294 50.6628C181.994 50.6628 186.559 44.7709 186.559 38.3061V10.2373H174.984V37.9787C174.984 39.2062 174.332 40.5156 171.723 40.5156C169.115 40.5156 168.463 39.1244 168.463 37.9787V10.2373H156.888V37.9787C156.888 39.2062 156.236 40.5156 153.546 40.5156C150.938 40.5156 150.285 39.1244 150.285 37.9787V10.2373H138.711V38.3061C138.711 44.7709 142.949 50.6628 153.301 50.6628C157.214 50.6628 160.312 49.4354 162.594 47.5532C164.958 49.4354 168.137 50.6628 172.294 50.6628ZM236.363 25.8674C236.363 27.3404 237.341 29.1408 240.846 29.1408C244.351 29.1408 245.329 27.4223 245.329 25.8674V19.5663C245.329 13.9198 248.182 9.99182 254.948 9.99182H262.936V5L275 14.9836L262.936 24.9673V19.9755H257.801C257.149 19.9755 256.823 20.3028 256.823 20.8756V27.0131C256.823 32.5777 253.236 36.7512 246.797 38.4697V49.9264H235.059V38.4697C228.701 36.7512 224.951 32.4959 224.951 27.0131V10.2373H236.444L236.363 25.8674Z" fill="#008736"/>
</svg>
